<svg id="SvgjsSvg1001" width="288" height="288" xmlns="http://www.w3.org/2000/svg" version="1.1" xmlns:xlink="http://www.w3.org/1999/xlink" xmlns:svgjs="http://svgjs.com/svgjs"><defs id="SvgjsDefs1002"></defs><g id="SvgjsG1008" transform="matrix(0.9167,0,0,0.9167,11.995201906585692,11.995257197570794)"><svg xmlns="http://www.w3.org/2000/svg" width="288" height="288" viewBox="0 0 64 64"><g transform="translate(0 -988.362)" fill="#55933f" class="color000 svgShape"><path fill="#a2c59c" d="m 26.2509,1014.1798 c -1.0928,-1.303 -1.7509,-2.983 -1.7509,-4.8167 0,-4.1421 3.3579,-7.5 7.5,-7.5 0.782,0 1.53601,0.1197 2.24481,0.3417 3.0455,0.9541 5.2552,3.7982 5.2552,7.1583 0,1.8409 -0.6633,3.5269 -1.7638,4.8321" class="colorfbd1d1 svgShape"></path><path fill="#69a47c" d="m 44.49991,1025.363 a 12.499995,12.499995 0 0 1 -12.50001,12.5001 12.499995,12.499995 0 0 1 -12.5,-12.5001 12.499995,12.499995 0 0 1 12.5,-12.5 12.499995,12.499995 0 0 1 12.50001,12.5 z" class="colorf09695 svgShape"></path><path fill="#a2c59c" d="m 32.0003,1012.8631 c -0.5088,0 -1.0071,0.039 -1.5,0.098 l 0,0.08 0,12.3222 0,3.8633 c 0,2.855 -1.6975,5.3593 -4.3027,6.9395 l -0.1778,0.1777 c 1.7763,0.9694 3.8144,1.5195 5.9805,1.5195 2.22801,0 4.31541,-0.5897 6.12701,-1.6113 l -0.17,-0.2148 0.051,0.2597 c -2.3107,-1.3323 -3.9318,-3.3838 -4.375,-5.7636 l -0.133,-0.17 0,-1.1368 0,-16.2558 0,-0.01 c -0.49291,-0.059 -0.99121,-0.098 -1.50001,-0.098 z" class="colorfbd1d1 svgShape"></path><circle cx="10.5" cy="1028.862" r="1" fill="#69a47c" class="colorf09695 svgShape"></circle><circle cx="16.5" cy="1039.862" r="1" fill="#69a47c" class="colorf09695 svgShape"></circle><circle cx="47.5" cy="1004.862" r="1" fill="#69a47c" class="colorf09695 svgShape"></circle><circle cx="16.5" cy="1004.862" r="1" fill="#69a47c" class="colorf09695 svgShape"></circle><circle cx="47.5" cy="1039.862" r="1" fill="#69a47c" class="colorf09695 svgShape"></circle><circle cx="53.5" cy="1028.862" r="1" fill="#69a47c" class="colorf09695 svgShape"></circle><path style="line-height:normal;text-indent:0;text-align:start;text-decoration-line:none;text-decoration-style:solid;text-decoration-color:#000;text-transform:none;block-progression:tb;isolation:auto;mix-blend-mode:normal" d="m 38.49221,999.36216 c -1.9307,0 -3.599,1.15274 -4.3537,2.80534 0.8615,0.1956 0.8615,0.1956 0.9007,0.4266 0.5907,-1.3177 1.9114,-2.2319 3.453,-2.2319 0.6762,0.01 0.6762,-1.00964 0,-1.00004 z" color="#000" font-family="sans-serif" font-weight="400" overflow="visible" white-space="normal" fill="#55933f" class="color000 svgShape"></path><path fill-rule="evenodd" style="line-height:normal;text-indent:0;text-align:start;text-decoration-line:none;text-decoration-style:solid;text-decoration-color:#000;text-transform:none;block-progression:tb;isolation:auto;mix-blend-mode:normal" d="m 44.18781,1022.6725 6.9587,0.719 1.8867,4.6602 0.9277,-0.377 -2.1132,-5.2168 -7.8774,-0.813 z" color="#000" font-family="sans-serif" font-weight="400" overflow="visible" white-space="normal" fill="#55933f" class="color000 svgShape"></path><path style="line-height:normal;text-indent:0;text-align:start;text-decoration-line:none;text-decoration-style:solid;text-decoration-color:#000;text-transform:none;block-progression:tb;isolation:auto;mix-blend-mode:normal" d="m 25.5078,999.36216 c -0.6762,-0.01 -0.6762,1.00964 0,1.00004 1.5648,0 2.902,0.9419 3.4791,2.2916 0.5035,-0.2907 0.7755,-0.2907 0.9395,-0.3374 -0.7205,-1.7318 -2.4304,-2.95424 -4.4186,-2.95424 z" color="#000" font-family="sans-serif" font-weight="400" overflow="visible" white-space="normal" fill="#55933f" class="color000 svgShape"></path><path fill-rule="evenodd" style="line-height:normal;text-indent:0;text-align:start;text-decoration-line:none;text-decoration-style:solid;text-decoration-color:#000;text-transform:none;block-progression:tb;isolation:auto;mix-blend-mode:normal" d="M20.0475 1021.6428l-7.8971.8151-2.1133 5.2168.9258.377 1.8867-4.6602 7.0646-.7298zM43.63081 1029.6595l3.3692 2.4586 0 6.5215 1 0 0-7.0313-3.8134-2.781zM19.8956 1028.7704l-3.8878 2.8379 0 7.0313 1 0 0-6.5215 3.3956-2.4797zM47.00001 1005.8622l0 6.7403-5.9715 4.1491.7193.7177 6.2522-4.3454 0-7.2617zM16 1005.8622l0 7.2617 6.3942 4.4441.527-.8514-5.9212-4.1141 0-6.7403z" color="#000" font-family="sans-serif" font-weight="400" overflow="visible" white-space="normal" fill="#55933f" class="color000 svgShape"></path><path fill="none" stroke="#687868" d="m 26.2509,1014.1798 c -1.0928,-1.303 -1.7509,-2.983 -1.7509,-4.8167 0,-4.1421 3.3579,-7.5 7.5,-7.5 0.782,0 1.53601,0.1197 2.24481,0.3417 3.0455,0.9541 5.2552,3.7982 5.2552,7.1583 0,1.8409 -0.6633,3.5269 -1.7638,4.8321" class="colorStrokecc4441 svgStroke"></path><path fill="none" stroke="#687868" d="m 44.49991,1025.363 a 12.499995,12.499995 0 0 1 -12.50001,12.5001 12.499995,12.499995 0 0 1 -12.5,-12.5001 12.499995,12.499995 0 0 1 12.5,-12.5 12.499995,12.499995 0 0 1 12.50001,12.5 z" class="colorStrokecc4441 svgStroke"></path><path fill="none" stroke="#687868" stroke-linecap="round" stroke-linejoin="round" d="M26.0888 1036.2376c2.6696-1.5756 4.4112-4.1158 4.4112-7.0121l0-16.1854M33.50001 1012.9702l0 16.2553c0 2.9318 1.7833 5.5003 4.5082 7.0714" class="colorStrokecc4441 svgStroke"></path><path fill="#49763d" fill-rule="evenodd" style="line-height:normal;text-indent:0;text-align:start;text-decoration-line:none;text-decoration-style:solid;text-decoration-color:#000;text-transform:none;block-progression:tb;isolation:auto;mix-blend-mode:normal" d="M16.5 1038.3622c-.8225 0-1.5.6775-1.5 1.5 0 .8225.6775 1.5 1.5 1.5.8225 0 1.5-.6775 1.5-1.5 0-.8225-.6775-1.5-1.5-1.5zm0 1c.2821 0 .5.218.5.5 0 .2821-.2179.5-.5.5-.2821 0-.5-.2179-.5-.5 0-.282.2179-.5.5-.5zM47.50001 1038.3622c-.8225 0-1.5.6775-1.5 1.5 0 .8225.6775 1.5 1.5 1.5.8225 0 1.5-.6775 1.5-1.5 0-.8225-.6775-1.5-1.5-1.5zm0 1c.2821 0 .5.218.5.5 0 .2821-.2179.5-.5.5-.2821 0-.5-.2179-.5-.5 0-.282.2179-.5.5-.5zM10.5 1027.3622c-.8225 0-1.5.6775-1.5 1.5 0 .8225.6775 1.5 1.5 1.5.8225 0 1.5-.6775 1.5-1.5 0-.8225-.6775-1.5-1.5-1.5zm0 1c.2821 0 .5.218.5.5 0 .2821-.2179.5-.5.5-.2821 0-.5-.2179-.5-.5 0-.282.2179-.5.5-.5zM53.50001 1027.3622c-.8225 0-1.5.6775-1.5 1.5 0 .8225.6775 1.5 1.5 1.5.8225 0 1.5-.6775 1.5-1.5 0-.8225-.6775-1.5-1.5-1.5zm0 1c.2821 0 .5.218.5.5 0 .2821-.2179.5-.5.5-.2821 0-.5-.2179-.5-.5 0-.282.2179-.5.5-.5zM16.5 1003.3622c-.8225 0-1.5.6775-1.5 1.5 0 .8225.6775 1.5 1.5 1.5.8225 0 1.5-.6775 1.5-1.5 0-.8225-.6775-1.5-1.5-1.5zm0 1c.2821 0 .5.218.5.5 0 .2821-.2179.5-.5.5-.2821 0-.5-.2179-.5-.5 0-.282.2179-.5.5-.5zM47.50001 1003.3622c-.8225 0-1.5.6775-1.5 1.5 0 .8225.6775 1.5 1.5 1.5.8225 0 1.5-.6775 1.5-1.5 0-.8225-.6775-1.5-1.5-1.5zm0 1c.2821 0 .5.218.5.5 0 .2821-.2179.5-.5.5-.2821 0-.5-.2179-.5-.5 0-.282.2179-.5.5-.5z" color="#000" font-family="sans-serif" font-weight="400" overflow="visible" white-space="normal" class="colorcc4441 svgShape"></path></g></svg></g></svg>