<svg id="SvgjsSvg1001" width="288" height="288" xmlns="http://www.w3.org/2000/svg" version="1.1" xmlns:xlink="http://www.w3.org/1999/xlink" xmlns:svgjs="http://svgjs.com/svgjs"><defs id="SvgjsDefs1002"></defs><g id="SvgjsG1008" transform="matrix(0.9167,0,0,0.9167,11.995200000000011,11.995200000000011)"><!--?xml version="1.0" encoding="UTF-8"?--><svg xmlns="http://www.w3.org/2000/svg" xmlns:xlink="http://www.w3.org/1999/xlink" width="288" height="288" viewBox="0 0 64 64" version="1.1"><title>clock</title><defs><path id="path-1" d="M.06 64V.04H64V64z" fill="#000000" class="color000 svgShape"></path></defs><g id="Page-1" stroke="none" stroke-width="1" fill="none" fill-rule="evenodd"><g id="clock" fill="#000000" class="color000 svgShape"><g id="Group-3" fill="#000000" class="color000 svgShape"><mask id="mask-2" fill="#fff"><use xlink:href="#path-1"></use></mask><path d="M64 32c0 17.673-14.327 32-32 32C14.327 64 0 49.673 0 32 0 14.327 14.327 0 32 0c17.673 0 32 14.327 32 32" id="Fill-1" fill="#dedeca" mask="url(#mask-2)" class="colorDEDECA svgShape"></path></g><path d="M32 56c-12.15 0-22-9.85-22-22 0-.335.007-.668.022-1C10.545 44.686 20.185 54 32 54c11.815 0 21.455-9.314 21.978-21 .015.332.022.665.022 1 0 12.15-9.85 22-22 22m17.972-23C49.452 23.538 41.59 16 32 16c-9.59 0-17.452 7.538-17.973 17A18.404 18.404 0 0 1 14 32c0-9.925 8.075-18 18-18s18 8.075 18 18c0 .336-.009.669-.028 1" id="Fill-4" fill="#dda165" class="colorB3B2A4 svgShape"></path><path d="M32 10c-12.15 0-22 9.85-22 22s9.85 22 22 22 22-9.85 22-22-9.85-22-22-22m0 4c9.925 0 18 8.075 18 18s-8.075 18-18 18-18-8.075-18-18 8.075-18 18-18" id="Fill-5" fill="#b85756" class="colorB85756 svgShape"></path><path d="M40 44a1.992 1.992 0 0 1-1.414-.586L30 34.829V26a2 2 0 0 1 4 0v7.171l7.414 7.415A2 2 0 0 1 40 44" id="Fill-6" fill="#dda165" class="colorB3B2A4 svgShape"></path><path d="M40 42a1.992 1.992 0 0 1-1.414-.586L30 32.829V24a2 2 0 0 1 4 0v7.171l7.414 7.415A2 2 0 0 1 40 42" id="Fill-7" fill="#b44c45" class="color4C5665 svgShape"></path></g></g><metadata><rdf:rdf xmlns:rdf="http://www.w3.org/1999/02/22-rdf-syntax-ns#" xmlns:rdfs="http://www.w3.org/2000/01/rdf-schema#" xmlns:dc="http://purl.org/dc/elements/1.1/"><rdf:description about="https://iconscout.com/legal#licenses" dc:title="clock" dc:description="clock" dc:publisher="Iconscout" dc:date="2017-09-25" dc:format="image/svg+xml" dc:language="en"><dc:creator><rdf:bag><rdf:li>Elegant Themes</rdf:li></rdf:bag></dc:creator></rdf:description></rdf:rdf></metadata></svg></g></svg>